<?xml version="1.0" encoding="UTF-8"?>
<svg width="14px" height="14px" viewBox="0 0 14 14" version="1.1" xmlns="http://www.w3.org/2000/svg" xmlns:xlink="http://www.w3.org/1999/xlink">
    <title>noun_grid_2442985</title>
    <g id="Mocks" stroke="none" stroke-width="1" fill="none" fill-rule="evenodd">
        <g id="Dashboard-List-HiFi-Collapsed" transform="translate(-845.000000, -96.000000)" fill="#FFFFFF" fill-rule="nonzero">
            <g id="Group-2" transform="translate(836.000000, 88.000000)">
                <g id="noun_grid_2442985" transform="translate(9.000000, 8.000000)">
                    <path d="M5.08632123,0 C5.33535172,0.0848506788 5.57680865,0.190520255 5.80813757,0.315890823 C6.29324491,0.630319188 6.48904125,1.11878 6.49342475,1.68036368 C6.50219175,2.72748326 6.50219175,3.77411536 6.49342475,4.82025996 C6.49342475,5.50761499 6.18511858,6.03848707 5.5568169,6.33244103 C5.31880537,6.43557323 5.06221366,6.48882821 4.80285489,6.48892398 C3.76981005,6.50647348 2.73530404,6.50062364 1.70225919,6.48892398 C0.838709677,6.48892398 0.241092503,6.00485055 0.0350680004,5.16393748 C0.024743154,5.13750379 0.013037683,5.11163138 0,5.08642723 C0,3.86381275 0,2.64071078 0,1.41712133 C0.0160728335,1.38348481 0.0292233337,1.34984828 0.0379903338,1.31621176 C0.135888502,0.916960861 0.311228504,0.557196312 0.669214342,0.336365228 C0.911450003,0.206917422 1.1624045,0.0945234043 1.42025402,0 L5.08632123,0 Z" id="Path"></path>
                    <path d="M0,8.88556073 C0.0963348793,8.62791642 0.213970219,8.37879347 0.351678449,8.14079158 C0.617609095,7.73757202 1.07060789,7.49859271 1.55263846,7.50722568 C2.66458443,7.49552008 3.77507115,7.49990968 4.88701712,7.50722568 C5.31990978,7.50708504 5.73450767,7.68227143 6.03673828,7.99303496 C6.3389689,8.30379849 6.50320757,8.72379105 6.49218847,9.15771606 C6.4994847,10.2170734 6.50532169,11.2778939 6.49218847,12.3372512 C6.47905525,13.2868684 5.83698671,13.9599407 4.8957726,13.9818887 C3.80279684,14.0067631 2.70690259,14.0052999 1.61538607,13.9818887 C0.798207932,13.9614039 0.248071935,13.4858637 0.0393996603,12.6942721 C0.0306441802,12.6591553 0.0160517134,12.6269649 0,12.5947745 C0,11.3578822 0,10.1214776 0,8.88556073 Z" id="Path"></path>
                    <path d="M12.5762287,0 C12.8732852,0.0606584384 13.153639,0.184893164 13.3979732,0.364144293 C13.75127,0.630611746 13.9662947,1.04118445 13.9838874,1.48290085 C14.0043944,2.38375581 13.9970704,3.2860732 14,4.18839058 C14,4.4179916 14,4.64905505 14,4.87865607 C13.9994147,5.31665234 13.8212552,5.73575611 13.5061179,6.04046767 C13.1909807,6.34517924 12.7657116,6.50954092 12.3272152,6.49610019 C11.2784289,6.49610019 10.2296426,6.50487476 9.18085637,6.49610019 C8.22581635,6.48440078 7.5432264,5.84970751 7.51978984,4.90936703 C7.49195892,3.80230988 7.49488849,2.69379031 7.51978984,1.58673316 C7.53590247,0.779473526 8.02807034,0.225213739 8.8190544,0.0321733913 C8.84663378,0.0233553741 8.87355511,0.012604177 8.89961759,0 L12.5762287,0 Z" id="Path"></path>
                    <path d="M13.9908821,10.7518289 C13.9908821,11.337085 14.0113974,11.922341 13.9908821,12.495892 C13.9628328,13.3039534 13.3128491,13.952306 12.5035257,13.979516 C11.331225,14.006828 10.1589244,14.006828 8.98662375,13.979516 C8.18635202,13.948483 7.54608005,13.3053559 7.51978257,12.5061339 C7.49340581,11.3356218 7.49340581,10.1651097 7.51978257,8.99459764 C7.54386324,8.19473748 8.18429334,7.55016884 8.98515837,7.51975239 C10.157459,7.49341587 11.3336673,7.49341587 12.5137833,7.51975239 C13.3072722,7.55666159 13.9421935,8.19061417 13.9791591,8.98289252 C14.0055359,9.56814856 13.9791591,10.1534046 13.9791591,10.7386607 L13.9791591,10.7386607 L13.9908821,10.7518289 Z" id="Path"></path>
                </g>
            </g>
        </g>
    </g>
</svg>