<?xml version="1.0" encoding="UTF-8"?>
<svg width="14px" height="10px" viewBox="0 0 14 10" version="1.1" xmlns="http://www.w3.org/2000/svg" xmlns:xlink="http://www.w3.org/1999/xlink">
    <title>noun_filter_3039129</title>
    <g id="Mocks" stroke="none" stroke-width="1" fill="none" fill-rule="evenodd">
        <g id="Dashboard-Visual-HiFi-Parent-KPI" transform="translate(-848.000000, -98.000000)" fill="#FFFFFF" fill-rule="nonzero">
            <g id="Group-2" transform="translate(840.000000, 88.000000)">
                <g id="Stacked-Group" transform="translate(8.000000, 10.000000)">
                    <path d="M13,8 L1,8 C0.448,8 0,8.447 0,9 C0,9.553 0.448,10 1,10 L13,10 C13.552,10 14,9.553 14,9 C14,8.447 13.552,8 13,8" id="Path"></path>
                    <path d="M13,4 L1,4 C0.448,4 0,4.447 0,5 C0,5.553 0.448,6 1,6 L13,6 C13.552,6 14,5.553 14,5 C14,4.447 13.552,4 13,4" id="Path"></path>
                    <path d="M13,0 L1,0 C0.448,0 0,0.447 0,1 C0,1.553 0.448,2 1,2 L13,2 C13.552,2 14,1.553 14,1 C14,0.447 13.552,0 13,0" id="Path"></path>
                </g>
            </g>
        </g>
    </g>
</svg>