<?xml version="1.0" encoding="UTF-8"?>
<svg width="15px" height="15px" viewBox="0 0 15 15" version="1.1" xmlns="http://www.w3.org/2000/svg" xmlns:xlink="http://www.w3.org/1999/xlink">
    <title>pencil icon</title>
    <g id="Mocks" stroke="none" stroke-width="1" fill="none" fill-rule="evenodd">
        <g id="Define-KPI-HiFi-6" transform="translate(-799.000000, -367.000000)" fill="#8D8D8D" fill-rule="nonzero">
            <g id="Group-2" transform="translate(193.000000, 350.000000)">
                <g id="pencil-icon" transform="translate(606.000000, 17.000000)">
                    <path d="M14.576087,3.0326087 L14.576087,3.0326087 L11.8532609,0.326086957 L11.8043478,0.277173913 C11.4782609,-0.0489130435 10.9891304,-0.0652173913 10.6304348,0.195652174 C10.5815217,0.22826087 10.5326087,0.277173913 10.4836957,0.326086957 L1.48369565,9.30978261 C1.30434783,9.48913043 1.20652174,9.73369565 1.20652174,9.99456522 C1.20652174,9.99456522 1.20652174,9.99456522 1.20652174,9.99456522 C1.19021739,10.0434783 1.1576087,10.0923913 1.14130435,10.1413043 L0.179347826,13.826087 C0.163043478,13.8913043 0.163043478,13.9728261 0.163043478,14.0380435 C0.14673913,14.201087 0.211956522,14.3641304 0.326086957,14.4782609 C0.440217391,14.5923913 0.586956522,14.6576087 0.733695652,14.6576087 C0.75,14.6576087 0.766304348,14.6576087 0.798913043,14.6576087 C0.815217391,14.6576087 0.815217391,14.6576087 0.831521739,14.6576087 C0.880434783,14.6576087 0.929347826,14.6576087 0.994565217,14.6413043 L4.69565217,13.7608696 C4.77717391,13.7445652 4.8423913,13.7119565 4.9076087,13.6630435 C5.15217391,13.6630435 5.38043478,13.5652174 5.57608696,13.3858696 L14.576087,4.38586957 C14.8206522,4.14130435 14.9021739,3.81521739 14.8369565,3.50543478 C14.7880435,3.3423913 14.7065217,3.17934783 14.576087,3.0326087 Z M10.9891304,0.717391304 C11.0380435,0.668478261 11.1032609,0.652173913 11.1684783,0.652173913 C11.2336957,0.652173913 11.298913,0.684782609 11.3478261,0.733695652 L11.3967391,0.782608696 L14.1032609,3.48913043 L14.1195652,3.50543478 C14.2173913,3.60326087 14.2173913,3.76630435 14.1195652,3.88043478 L12.8641304,5.13586957 C12.7663043,5.23369565 12.5869565,5.23369565 12.4891304,5.13586957 L9.7173913,2.36413043 C9.66847826,2.31521739 9.63586957,2.25 9.63586957,2.18478261 C9.63586957,2.11956522 9.66847826,2.05434783 9.7173913,2.00543478 L10.9891304,0.717391304 Z M11.8532609,6.16304348 C11.7554348,6.26086957 11.576087,6.26086957 11.4782609,6.16304348 L8.70652174,3.39130435 C8.60869565,3.29347826 8.60869565,3.13043478 8.70652174,3.01630435 L9.13043478,2.5923913 C9.16304348,2.6576087 9.21195652,2.72282609 9.27717391,2.78804348 L12.048913,5.55978261 C12.048913,5.55978261 12.048913,5.55978261 12.048913,5.55978261 C12.1141304,5.625 12.1956522,5.69021739 12.2771739,5.72282609 L11.8532609,6.16304348 Z M1.95652174,13.7608696 L1.0923913,12.8804348 L1.63043478,10.8097826 L4.07608696,13.2554348 L1.95652174,13.7608696 Z M5.11956522,12.9293478 C4.98913043,13.0597826 4.77717391,13.0597826 4.64673913,12.9293478 L1.94021739,10.2228261 C1.875,10.1576087 1.8423913,10.076087 1.8423913,9.99456522 C1.8423913,9.91304348 1.875,9.81521739 1.94021739,9.76630435 L8.10326087,3.60326087 C8.15217391,3.68478261 8.20108696,3.76630435 8.26630435,3.84782609 L11.0380435,6.61956522 C11.1032609,6.68478261 11.1847826,6.75 11.2826087,6.7826087 L5.11956522,12.9293478 Z" id="Shape"></path>
                </g>
            </g>
        </g>
    </g>
</svg>