<?xml version="1.0" encoding="UTF-8"?>
<svg width="15px" height="17px" viewBox="0 0 15 17" version="1.1" xmlns="http://www.w3.org/2000/svg" xmlns:xlink="http://www.w3.org/1999/xlink">
    <title>noun_trash icon_1833346</title>
    <g id="Mocks" stroke="none" stroke-width="1" fill="none" fill-rule="evenodd">
        <g id="Dashboard-List-HiFi-Collapsed" transform="translate(-952.000000, -178.000000)" fill="#898888" fill-rule="nonzero">
            <g id="Hierarchy" transform="translate(295.000000, 167.000000)">
                <g id="Group" transform="translate(657.000000, 11.000000)">
                    <path d="M1.03658537,3.76626016 L1.34756098,3.76626016 L2.24593496,14.8922764 C2.29776423,15.5660569 2.86788618,16.0843496 3.54166667,16.0843496 L10.625,16.0843496 C11.2987805,16.0843496 11.8689024,15.5660569 11.9207317,14.8922764 L12.8191057,3.76626016 L13.1300813,3.76626016 C13.7002033,3.76626016 14.1666667,3.29979675 14.1666667,2.7296748 C14.1666667,2.15955285 13.7002033,1.69308943 13.1300813,1.69308943 L9.41565041,1.69308943 L9.41565041,1.24390244 C9.41565041,0.639227642 8.91463415,0.138211382 8.30995935,0.138211382 L5.85670732,0.138211382 C5.25203252,0.138211382 4.75101626,0.639227642 4.75101626,1.24390244 L4.75101626,1.69308943 L1.03658537,1.69308943 C0.466463415,1.69308943 0,2.15955285 0,2.7296748 C0,3.29979675 0.466463415,3.76626016 1.03658537,3.76626016 Z M11.2296748,14.8404472 C11.2123984,15.1514228 10.9359756,15.3932927 10.625,15.3932927 L3.54166667,15.3932927 C3.23069106,15.3932927 2.95426829,15.1514228 2.93699187,14.8404472 L2.03861789,3.76626016 L12.1107724,3.76626016 L11.2296748,14.8404472 Z M5.44207317,1.26117886 C5.44207317,1.03658537 5.63211382,0.846544715 5.85670732,0.846544715 L8.30995935,0.846544715 C8.53455285,0.846544715 8.7245935,1.03658537 8.7245935,1.26117886 L8.7245935,1.71036585 L5.44207317,1.71036585 L5.44207317,1.26117886 L5.44207317,1.26117886 Z M1.03658537,2.38414634 L5.09654472,2.38414634 L9.07012195,2.38414634 L13.1300813,2.38414634 C13.320122,2.38414634 13.4756098,2.53963415 13.4756098,2.7296748 C13.4756098,2.91971545 13.320122,3.07520325 13.1300813,3.07520325 L12.4908537,3.07520325 L1.67581301,3.07520325 L1.03658537,3.07520325 C0.846544715,3.07520325 0.691056911,2.91971545 0.691056911,2.7296748 C0.691056911,2.53963415 0.846544715,2.38414634 1.03658537,2.38414634 Z" id="Shape"></path>
                    <path d="M4.88922764,14.3739837 C5.07926829,14.3739837 5.2347561,14.2184959 5.2347561,14.0284553 L5.2347561,4.97560976 C5.2347561,4.78556911 5.07926829,4.6300813 4.88922764,4.6300813 C4.69918699,4.6300813 4.54369919,4.78556911 4.54369919,4.97560976 L4.54369919,14.0284553 C4.54369919,14.2184959 4.69918699,14.3739837 4.88922764,14.3739837 Z" id="Path"></path>
                    <path d="M7.08333333,14.4603659 C7.27337398,14.4603659 7.42886179,14.304878 7.42886179,14.1148374 L7.42886179,5.06199187 C7.42886179,4.87195122 7.27337398,4.71646341 7.08333333,4.71646341 C6.89329268,4.71646341 6.73780488,4.87195122 6.73780488,5.06199187 L6.73780488,14.1148374 C6.73780488,14.304878 6.89329268,14.4603659 7.08333333,14.4603659 Z" id="Path"></path>
                    <path d="M9.27743902,14.546748 C9.46747967,14.546748 9.62296748,14.3912602 9.62296748,14.2012195 L9.62296748,5.14837398 C9.62296748,4.95833333 9.46747967,4.80284553 9.27743902,4.80284553 C9.08739837,4.80284553 8.93191057,4.95833333 8.93191057,5.14837398 L8.93191057,14.2012195 C8.93191057,14.3912602 9.08739837,14.546748 9.27743902,14.546748 Z" id="Path"></path>
                </g>
            </g>
        </g>
    </g>
</svg>